<mxfile host="65bd71144e">
    <diagram id="P8Vj52I-r78iM3PTuu8w" name="第 1 页">
        <mxGraphModel dx="59" dy="1695" grid="1" gridSize="10" guides="1" tooltips="1" connect="1" arrows="1" fold="1" page="1" pageScale="1" pageWidth="827" pageHeight="1169" math="0" shadow="0">
            <root>
                <mxCell id="0"/>
                <mxCell id="1" parent="0"/>
                <mxCell id="2" value="好友管理" style="swimlane;childLayout=stackLayout;resizeParent=1;resizeParentMax=0;startSize=20;html=1;gradientColor=none;swimlaneFillColor=default;" vertex="1" parent="1">
                    <mxGeometry x="980.0000000000005" y="-170" width="515" height="970" as="geometry"/>
                </mxCell>
                <mxCell id="3" value="用户A" style="swimlane;startSize=20;html=1;gradientColor=none;" vertex="1" parent="2">
                    <mxGeometry y="20" width="260" height="950" as="geometry"/>
                </mxCell>
                <mxCell id="4" value="精确搜索用户ID" style="rounded=0;whiteSpace=wrap;html=1;gradientColor=none;" vertex="1" parent="3">
                    <mxGeometry x="94.99999999999955" y="30" width="75" height="40" as="geometry"/>
                </mxCell>
                <mxCell id="5" value="" style="edgeStyle=none;html=1;" edge="1" parent="3" source="6" target="7">
                    <mxGeometry relative="1" as="geometry"/>
                </mxCell>
                <mxCell id="6" value="用户信息简介" style="whiteSpace=wrap;html=1;rounded=0;gradientColor=none;" vertex="1" parent="3">
                    <mxGeometry x="95" y="150" width="75" height="40" as="geometry"/>
                </mxCell>
                <mxCell id="7" value="对方个人主页" style="whiteSpace=wrap;html=1;rounded=0;gradientColor=none;" vertex="1" parent="3">
                    <mxGeometry x="95" y="220" width="75" height="40" as="geometry"/>
                </mxCell>
                <mxCell id="8" value="填写请求消息" style="whiteSpace=wrap;html=1;rounded=0;gradientColor=none;" vertex="1" parent="3">
                    <mxGeometry x="95" y="340" width="75" height="40" as="geometry"/>
                </mxCell>
                <mxCell id="9" value="" style="edgeStyle=none;html=1;" edge="1" parent="3" source="10" target="14">
                    <mxGeometry relative="1" as="geometry"/>
                </mxCell>
                <mxCell id="10" value="渲染好友列表与聊天列表" style="whiteSpace=wrap;html=1;rounded=0;gradientColor=none;spacingLeft=10;spacingRight=10;" vertex="1" parent="3">
                    <mxGeometry x="92.5" y="600" width="75" height="40" as="geometry"/>
                </mxCell>
                <mxCell id="11" value="" style="edgeStyle=none;html=1;" edge="1" parent="3" source="14" target="15">
                    <mxGeometry relative="1" as="geometry"/>
                </mxCell>
                <mxCell id="12" value="" style="edgeStyle=none;html=1;" edge="1" parent="3" source="14" target="15">
                    <mxGeometry relative="1" as="geometry"/>
                </mxCell>
                <mxCell id="13" value="" style="edgeStyle=none;html=1;" edge="1" parent="3" source="14" target="16">
                    <mxGeometry relative="1" as="geometry"/>
                </mxCell>
                <mxCell id="14" value="管理好友" style="rhombus;whiteSpace=wrap;html=1;rounded=0;gradientColor=none;spacingLeft=10;spacingRight=10;" vertex="1" parent="3">
                    <mxGeometry x="90" y="700" width="80" height="50" as="geometry"/>
                </mxCell>
                <mxCell id="15" value="设置分组标签" style="whiteSpace=wrap;html=1;rounded=0;gradientColor=none;spacingLeft=10;spacingRight=10;" vertex="1" parent="3">
                    <mxGeometry x="160" y="770" width="75" height="40" as="geometry"/>
                </mxCell>
                <mxCell id="16" value="删除好友" style="whiteSpace=wrap;html=1;rounded=0;gradientColor=none;spacingLeft=10;spacingRight=10;" vertex="1" parent="3">
                    <mxGeometry x="20" y="770" width="75" height="40" as="geometry"/>
                </mxCell>
                <mxCell id="17" value="后端" style="swimlane;startSize=20;html=1;gradientColor=none;" vertex="1" parent="2">
                    <mxGeometry x="260" y="20" width="135" height="950" as="geometry"/>
                </mxCell>
                <mxCell id="18" value="查找用户" style="rhombus;whiteSpace=wrap;html=1;rounded=0;gradientColor=none;" vertex="1" parent="17">
                    <mxGeometry x="20" y="85" width="80" height="55" as="geometry"/>
                </mxCell>
                <mxCell id="19" value="保存并处理历史请求" style="whiteSpace=wrap;html=1;rounded=0;gradientColor=none;" vertex="1" parent="17">
                    <mxGeometry x="22.5" y="380" width="75" height="40" as="geometry"/>
                </mxCell>
                <mxCell id="20" value="判断是否已为好友" style="rhombus;whiteSpace=wrap;html=1;rounded=0;gradientColor=none;spacingLeft=15;spacingRight=15;" vertex="1" parent="17">
                    <mxGeometry x="20" y="250" width="80" height="50" as="geometry"/>
                </mxCell>
                <mxCell id="21" value="设置请求忽略" style="whiteSpace=wrap;html=1;rounded=0;gradientColor=none;spacingLeft=10;spacingRight=10;" vertex="1" parent="17">
                    <mxGeometry x="22.5" y="525" width="75" height="40" as="geometry"/>
                </mxCell>
                <mxCell id="22" value="建立好友关系与聊天会话" style="whiteSpace=wrap;html=1;rounded=0;gradientColor=none;spacingLeft=10;spacingRight=10;" vertex="1" parent="17">
                    <mxGeometry x="22.5" y="600" width="75" height="40" as="geometry"/>
                </mxCell>
                <mxCell id="23" value="保存标签" style="whiteSpace=wrap;html=1;rounded=0;gradientColor=none;spacingLeft=10;spacingRight=10;" vertex="1" parent="17">
                    <mxGeometry x="30" y="770" width="75" height="40" as="geometry"/>
                </mxCell>
                <mxCell id="24" value="处理好友关系" style="whiteSpace=wrap;html=1;rounded=0;gradientColor=none;spacingLeft=10;spacingRight=10;" vertex="1" parent="17">
                    <mxGeometry x="30" y="855" width="75" height="40" as="geometry"/>
                </mxCell>
                <mxCell id="25" value="用户B" style="swimlane;startSize=20;html=1;gradientColor=none;swimlaneFillColor=none;" vertex="1" parent="2">
                    <mxGeometry x="395" y="20" width="120" height="950" as="geometry"/>
                </mxCell>
                <mxCell id="26" value="" style="edgeStyle=none;html=1;" edge="1" parent="25" source="27" target="28">
                    <mxGeometry relative="1" as="geometry"/>
                </mxCell>
                <mxCell id="27" value="收到好友请求并渲染列表" style="whiteSpace=wrap;html=1;rounded=0;gradientColor=none;" vertex="1" parent="25">
                    <mxGeometry x="22.5" y="420" width="75" height="40" as="geometry"/>
                </mxCell>
                <mxCell id="28" value="处理好友请求" style="rhombus;whiteSpace=wrap;html=1;rounded=0;gradientColor=none;spacingLeft=10;spacingRight=10;" vertex="1" parent="25">
                    <mxGeometry x="20" y="520" width="80" height="50" as="geometry"/>
                </mxCell>
                <mxCell id="29" value="渲染好友列表与聊天列表" style="whiteSpace=wrap;html=1;rounded=0;gradientColor=none;spacingLeft=10;spacingRight=10;" vertex="1" parent="25">
                    <mxGeometry x="22.5" y="660" width="75" height="40" as="geometry"/>
                </mxCell>
                <mxCell id="30" value="" style="edgeStyle=none;html=1;" edge="1" parent="2" source="4" target="18">
                    <mxGeometry relative="1" as="geometry">
                        <Array as="points">
                            <mxPoint x="132.99999999999955" y="133"/>
                        </Array>
                    </mxGeometry>
                </mxCell>
                <mxCell id="31" style="edgeStyle=none;html=1;exitX=0.5;exitY=0;exitDx=0;exitDy=0;entryX=1;entryY=0.5;entryDx=0;entryDy=0;" edge="1" parent="2" source="18" target="4">
                    <mxGeometry relative="1" as="geometry">
                        <Array as="points">
                            <mxPoint x="319.99999999999955" y="70"/>
                            <mxPoint x="179.99999999999955" y="70"/>
                        </Array>
                    </mxGeometry>
                </mxCell>
                <mxCell id="32" value="用户不存在" style="edgeLabel;html=1;align=center;verticalAlign=middle;resizable=0;points=[];" vertex="1" connectable="0" parent="31">
                    <mxGeometry x="0.1234" y="-1" relative="1" as="geometry">
                        <mxPoint as="offset"/>
                    </mxGeometry>
                </mxCell>
                <mxCell id="33" value="查询成功" style="edgeStyle=none;html=1;exitX=0.5;exitY=1;exitDx=0;exitDy=0;" edge="1" parent="2" source="18" target="6">
                    <mxGeometry relative="1" as="geometry">
                        <Array as="points">
                            <mxPoint x="319.99999999999955" y="190"/>
                            <mxPoint x="179.99999999999955" y="190"/>
                        </Array>
                    </mxGeometry>
                </mxCell>
                <mxCell id="34" value="" style="edgeStyle=none;html=1;" edge="1" parent="2" source="8" target="19">
                    <mxGeometry relative="1" as="geometry">
                        <Array as="points">
                            <mxPoint x="129.99999999999955" y="420"/>
                        </Array>
                    </mxGeometry>
                </mxCell>
                <mxCell id="35" value="" style="edgeStyle=none;html=1;" edge="1" parent="2" source="19" target="27">
                    <mxGeometry relative="1" as="geometry">
                        <Array as="points">
                            <mxPoint x="319.99999999999955" y="460"/>
                        </Array>
                    </mxGeometry>
                </mxCell>
                <mxCell id="36" value="" style="edgeStyle=none;html=1;" edge="1" parent="2" source="7" target="20">
                    <mxGeometry relative="1" as="geometry">
                        <Array as="points">
                            <mxPoint x="129.99999999999955" y="295"/>
                        </Array>
                    </mxGeometry>
                </mxCell>
                <mxCell id="37" style="edgeStyle=none;html=1;entryX=0.5;entryY=0;entryDx=0;entryDy=0;" edge="1" parent="2" source="20" target="8">
                    <mxGeometry relative="1" as="geometry">
                        <Array as="points">
                            <mxPoint x="319.99999999999955" y="350"/>
                            <mxPoint x="132.99999999999955" y="350"/>
                        </Array>
                    </mxGeometry>
                </mxCell>
                <mxCell id="38" value="否" style="edgeLabel;html=1;align=center;verticalAlign=middle;resizable=0;points=[];" vertex="1" connectable="0" parent="37">
                    <mxGeometry x="-0.1958" y="-1" relative="1" as="geometry">
                        <mxPoint as="offset"/>
                    </mxGeometry>
                </mxCell>
                <mxCell id="39" value="忽略" style="edgeStyle=none;html=1;" edge="1" parent="2" source="28" target="21">
                    <mxGeometry relative="1" as="geometry"/>
                </mxCell>
                <mxCell id="40" value="" style="edgeStyle=none;html=1;" edge="1" parent="2" source="28">
                    <mxGeometry relative="1" as="geometry">
                        <mxPoint x="359.99999999999955" y="640" as="targetPoint"/>
                        <Array as="points">
                            <mxPoint x="454.99999999999955" y="630"/>
                            <mxPoint x="454.99999999999955" y="640"/>
                        </Array>
                    </mxGeometry>
                </mxCell>
                <mxCell id="41" value="同意" style="edgeLabel;html=1;align=center;verticalAlign=middle;resizable=0;points=[];" vertex="1" connectable="0" parent="40">
                    <mxGeometry x="0.1209" y="2" relative="1" as="geometry">
                        <mxPoint as="offset"/>
                    </mxGeometry>
                </mxCell>
                <mxCell id="42" value="" style="edgeStyle=none;html=1;" edge="1" parent="2" source="22" target="10">
                    <mxGeometry relative="1" as="geometry"/>
                </mxCell>
                <mxCell id="43" value="" style="edgeStyle=none;html=1;" edge="1" parent="2" source="22" target="29">
                    <mxGeometry relative="1" as="geometry">
                        <Array as="points">
                            <mxPoint x="319.99999999999955" y="700"/>
                        </Array>
                    </mxGeometry>
                </mxCell>
                <mxCell id="44" style="edgeStyle=none;html=1;exitX=0;exitY=1;exitDx=0;exitDy=0;entryX=0;entryY=0.5;entryDx=0;entryDy=0;" edge="1" parent="2" source="20" target="14">
                    <mxGeometry relative="1" as="geometry">
                        <mxPoint x="19.999999999999545" y="720" as="targetPoint"/>
                        <Array as="points">
                            <mxPoint x="69.99999999999955" y="308"/>
                            <mxPoint x="69.99999999999955" y="710"/>
                        </Array>
                    </mxGeometry>
                </mxCell>
                <mxCell id="45" value="是" style="edgeLabel;html=1;align=center;verticalAlign=middle;resizable=0;points=[];" vertex="1" connectable="0" parent="44">
                    <mxGeometry x="-0.6585" y="3" relative="1" as="geometry">
                        <mxPoint as="offset"/>
                    </mxGeometry>
                </mxCell>
                <mxCell id="46" value="" style="edgeStyle=none;html=1;" edge="1" parent="2" source="15" target="23">
                    <mxGeometry relative="1" as="geometry"/>
                </mxCell>
                <mxCell id="47" style="edgeStyle=none;html=1;exitX=0.5;exitY=0;exitDx=0;exitDy=0;entryX=1;entryY=1;entryDx=0;entryDy=0;" edge="1" parent="2" source="23" target="10">
                    <mxGeometry relative="1" as="geometry"/>
                </mxCell>
                <mxCell id="48" value="" style="edgeStyle=none;html=1;" edge="1" parent="2" source="16" target="24">
                    <mxGeometry relative="1" as="geometry">
                        <Array as="points">
                            <mxPoint x="57.999999999999545" y="895"/>
                        </Array>
                    </mxGeometry>
                </mxCell>
                <mxCell id="49" style="edgeStyle=none;html=1;exitX=0.25;exitY=0;exitDx=0;exitDy=0;entryX=0.931;entryY=1.012;entryDx=0;entryDy=0;entryPerimeter=0;" edge="1" parent="2" source="24" target="10">
                    <mxGeometry relative="1" as="geometry"/>
                </mxCell>
                <mxCell id="50" style="edgeStyle=none;html=1;exitX=0.75;exitY=0;exitDx=0;exitDy=0;entryX=0.5;entryY=1;entryDx=0;entryDy=0;" edge="1" parent="2" source="24" target="29">
                    <mxGeometry relative="1" as="geometry"/>
                </mxCell>
            </root>
        </mxGraphModel>
    </diagram>
</mxfile>